SolveFromPy_states
version=1
nRows=4
nColumns=195
inDegrees=yes

# SIMM Motion File Header:
name SolveFromPy_states
datacolumns 195
datarows 4
otherdata 1
range 0.30191515 0.30255713
endheader
time	/jointset/ground_platform/platform_rx/value	/jointset/ground_platform/platform_rx/speed	/jointset/ground_platform/platform_ry/value	/jointset/ground_platform/platform_ry/speed	/jointset/ground_platform/platform_rz/value	/jointset/ground_platform/platform_rz/speed	/jointset/ground_platform/platform_ty/value	/jointset/ground_platform/platform_ty/speed	/jointset/ground_pelvis/pelvis_tilt/value	/jointset/ground_pelvis/pelvis_tilt/speed	/jointset/ground_pelvis/pelvis_list/value	/jointset/ground_pelvis/pelvis_list/speed	/jointset/ground_pelvis/pelvis_rotation/value	/jointset/ground_pelvis/pelvis_rotation/speed	/jointset/ground_pelvis/pelvis_tx/value	/jointset/ground_pelvis/pelvis_tx/speed	/jointset/ground_pelvis/pelvis_ty/value	/jointset/ground_pelvis/pelvis_ty/speed	/jointset/ground_pelvis/pelvis_tz/value	/jointset/ground_pelvis/pelvis_tz/speed	/jointset/hip_r/hip_flexion_r/value	/jointset/hip_r/hip_flexion_r/speed	/jointset/hip_r/hip_adduction_r/value	/jointset/hip_r/hip_adduction_r/speed	/jointset/hip_r/hip_rotation_r/value	/jointset/hip_r/hip_rotation_r/speed	/jointset/knee_r/knee_angle_r/value	/jointset/knee_r/knee_angle_r/speed	/jointset/ankle_r/ankle_angle_r/value	/jointset/ankle_r/ankle_angle_r/speed	/jointset/subtalar_r/subtalar_angle_r/value	/jointset/subtalar_r/subtalar_angle_r/speed	/jointset/mtp_r/mtp_angle_r/value	/jointset/mtp_r/mtp_angle_r/speed	/jointset/hip_l/hip_flexion_l/value	/jointset/hip_l/hip_flexion_l/speed	/jointset/hip_l/hip_adduction_l/value	/jointset/hip_l/hip_adduction_l/speed	/jointset/hip_l/hip_rotation_l/value	/jointset/hip_l/hip_rotation_l/speed	/jointset/knee_l/knee_angle_l/value	/jointset/knee_l/knee_angle_l/speed	/jointset/ankle_l/ankle_angle_l/value	/jointset/ankle_l/ankle_angle_l/speed	/jointset/subtalar_l/subtalar_angle_l/value	/jointset/subtalar_l/subtalar_angle_l/speed	/jointset/mtp_l/mtp_angle_l/value	/jointset/mtp_l/mtp_angle_l/speed	/jointset/back/lumbar_extension/value	/jointset/back/lumbar_extension/speed	/jointset/back/lumbar_bending/value	/jointset/back/lumbar_bending/speed	/jointset/back/lumbar_rotation/value	/jointset/back/lumbar_rotation/speed	/forceset/glut_med1_r/activation	/forceset/glut_med1_r/fiber_length	/forceset/glut_med2_r/activation	/forceset/glut_med2_r/fiber_length	/forceset/glut_med3_r/activation	/forceset/glut_med3_r/fiber_length	/forceset/bifemlh_r/activation	/forceset/bifemlh_r/fiber_length	/forceset/bifemsh_r/activation	/forceset/bifemsh_r/fiber_length	/forceset/sar_r/activation	/forceset/sar_r/fiber_length	/forceset/add_mag2_r/activation	/forceset/add_mag2_r/fiber_length	/forceset/tfl_r/activation	/forceset/tfl_r/fiber_length	/forceset/pect_r/activation	/forceset/pect_r/fiber_length	/forceset/grac_r/activation	/forceset/grac_r/fiber_length	/forceset/glut_max1_r/activation	/forceset/glut_max1_r/fiber_length	/forceset/glut_max2_r/activation	/forceset/glut_max2_r/fiber_length	/forceset/glut_max3_r/activation	/forceset/glut_max3_r/fiber_length	/forceset/iliacus_r/activation	/forceset/iliacus_r/fiber_length	/forceset/psoas_r/activation	/forceset/psoas_r/fiber_length	/forceset/quad_fem_r/activation	/forceset/quad_fem_r/fiber_length	/forceset/gem_r/activation	/forceset/gem_r/fiber_length	/forceset/peri_r/activation	/forceset/peri_r/fiber_length	/forceset/rect_fem_r/activation	/forceset/rect_fem_r/fiber_length	/forceset/vas_int_r/activation	/forceset/vas_int_r/fiber_length	/forceset/med_gas_r/activation	/forceset/med_gas_r/fiber_length	/forceset/lat_gas_r/activation	/forceset/lat_gas_r/fiber_length	/forceset/soleus_r/activation	/forceset/soleus_r/fiber_length	/forceset/tib_post_r/activation	/forceset/tib_post_r/fiber_length	/forceset/flex_dig_r/activation	/forceset/flex_dig_r/fiber_length	/forceset/flex_hal_r/activation	/forceset/flex_hal_r/fiber_length	/forceset/tib_ant_r/activation	/forceset/tib_ant_r/fiber_length	/forceset/per_brev_r/activation	/forceset/per_brev_r/fiber_length	/forceset/per_long_r/activation	/forceset/per_long_r/fiber_length	/forceset/per_tert_r/activation	/forceset/per_tert_r/fiber_length	/forceset/ext_dig_r/activation	/forceset/ext_dig_r/fiber_length	/forceset/ext_hal_r/activation	/forceset/ext_hal_r/fiber_length	/forceset/glut_med1_l/activation	/forceset/glut_med1_l/fiber_length	/forceset/glut_med2_l/activation	/forceset/glut_med2_l/fiber_length	/forceset/glut_med3_l/activation	/forceset/glut_med3_l/fiber_length	/forceset/bifemlh_l/activation	/forceset/bifemlh_l/fiber_length	/forceset/bifemsh_l/activation	/forceset/bifemsh_l/fiber_length	/forceset/sar_l/activation	/forceset/sar_l/fiber_length	/forceset/add_mag2_l/activation	/forceset/add_mag2_l/fiber_length	/forceset/tfl_l/activation	/forceset/tfl_l/fiber_length	/forceset/pect_l/activation	/forceset/pect_l/fiber_length	/forceset/grac_l/activation	/forceset/grac_l/fiber_length	/forceset/glut_max1_l/activation	/forceset/glut_max1_l/fiber_length	/forceset/glut_max2_l/activation	/forceset/glut_max2_l/fiber_length	/forceset/glut_max3_l/activation	/forceset/glut_max3_l/fiber_length	/forceset/iliacus_l/activation	/forceset/iliacus_l/fiber_length	/forceset/psoas_l/activation	/forceset/psoas_l/fiber_length	/forceset/quad_fem_l/activation	/forceset/quad_fem_l/fiber_length	/forceset/gem_l/activation	/forceset/gem_l/fiber_length	/forceset/peri_l/activation	/forceset/peri_l/fiber_length	/forceset/rect_fem_l/activation	/forceset/rect_fem_l/fiber_length	/forceset/vas_int_l/activation	/forceset/vas_int_l/fiber_length	/forceset/med_gas_l/activation	/forceset/med_gas_l/fiber_length	/forceset/lat_gas_l/activation	/forceset/lat_gas_l/fiber_length	/forceset/soleus_l/activation	/forceset/soleus_l/fiber_length	/forceset/tib_post_l/activation	/forceset/tib_post_l/fiber_length	/forceset/flex_dig_l/activation	/forceset/flex_dig_l/fiber_length	/forceset/flex_hal_l/activation	/forceset/flex_hal_l/fiber_length	/forceset/tib_ant_l/activation	/forceset/tib_ant_l/fiber_length	/forceset/per_brev_l/activation	/forceset/per_brev_l/fiber_length	/forceset/per_long_l/activation	/forceset/per_long_l/fiber_length	/forceset/per_tert_l/activation	/forceset/per_tert_l/fiber_length	/forceset/ext_dig_l/activation	/forceset/ext_dig_l/fiber_length	/forceset/ext_hal_l/activation	/forceset/ext_hal_l/fiber_length	/forceset/ercspn_r/activation	/forceset/ercspn_r/fiber_length	/forceset/ercspn_l/activation	/forceset/ercspn_l/fiber_length	/forceset/intobl_r/activation	/forceset/intobl_r/fiber_length	/forceset/intobl_l/activation	/forceset/intobl_l/fiber_length	/forceset/extobl_r/activation	/forceset/extobl_r/fiber_length	/forceset/extobl_l/activation	/forceset/extobl_l/fiber_length
      0.30191515	     20.00000000	     -0.00000000	      0.00000000	      0.00000000	      0.00000000	      0.00000000	      0.25000000	      0.00000000	     -7.42914603	      4.15916572	      0.29069675	     29.12146626	      1.51441280	     10.38575229	      0.05390321	      0.00235827	      1.23195893	     -3.06171100	     -0.00161174	      0.03417985	      8.43948424	     76.45570967	     -1.66306685	    -14.15791238	     -1.93058631	     60.22878037	     -9.60387652	   -264.75870835	     34.62568599	   2149.27364630	      5.95010135	     42.37788745	      0.00000000	      0.00000000	    -19.99999998	      0.00000000	     10.00000028	     -0.00000000	      4.99999985	      0.00000000	   -119.99999986	     -0.00000000	     11.49999977	      0.00000000	     -0.03000064	     -0.00000000	     -0.00000000	     -0.00000000	     -5.09397802	     -3.28391559	     -0.61647691	    -40.19704069	      0.00170157	     -6.98083665	     -0.01342937	      0.04530460	     -0.01342937	      0.07997666	     -0.01342937	      0.06174601	     -0.01342937	      0.09774264	     -0.01342937	      0.16748543	     -0.01342937	      0.46056440	     -0.01342937	      0.07659295	     -0.01342937	      0.10387750	     -0.01342937	      0.06831116	     -0.01342937	      0.31297818	     -0.01342937	      0.08075371	     -0.01342937	      0.08911304	     -0.01342937	      0.10154335	     -0.01342937	      0.10182391	     -0.01342937	      0.09611117	     -0.01342937	      0.04498391	     -0.01342937	      0.02419646	     -0.01342937	      0.02120961	     -0.01342937	      0.10062677	     -0.01342937	      0.07353277	     -0.01342937	      0.11033933	     -0.01342937	      0.08278368	     -0.01342937	      0.09778080	     -0.01342937	      0.03680528	     -0.01342937	      0.03477099	     -0.01342937	      0.04501430	     -0.01342937	      0.07746009	     -0.01342937	      0.05379074	     -0.01342937	      0.05563955	     -0.01342937	      0.07576050	     -0.01342937	      0.09364322	     -0.01342937	      0.10055378	     -0.01342937	      0.04646954	     -0.01342937	      0.07924345	     -0.01342937	      0.06066849	     -0.01342937	      0.02207317	     -0.01342937	      0.12238178	     -0.01342937	      0.45556126	     -0.01342937	      0.05828642	     -0.01342937	      0.13391495	     -0.01342937	      0.07307389	     -0.01342937	      0.24301553	     -0.01342937	      0.06638073	     -0.01342937	      0.06554424	     -0.01342937	      0.05770037	     -0.01342937	      0.11895704	     -0.01342937	      0.11276383	     -0.01342937	      0.04385542	     -0.01342937	      0.02477863	     -0.01342937	      0.02332623	     -0.01342937	      0.18252185	     -0.01342937	      0.13945923	     -0.01342937	      0.06773748	     -0.01342937	      0.04190255	     -0.01342937	      0.08593352	     -0.01342937	      0.03561972	     -0.01342937	      0.03422005	     -0.01342937	      0.04261418	     -0.01342937	      0.07211219	     -0.01342937	      0.05030458	     -0.01342937	      0.05155921	     -0.01342937	      0.07464108	     -0.01342937	      0.08888348	     -0.01342937	      0.09641126	     -0.01342937	      0.12365965	     -0.01342937	      0.12289831	     -0.01342937	      0.09499580	     -0.01342937	      0.09322376	     -0.01342937	      0.12806925	     -0.01342937	      0.12703103
      0.30212914	     20.00000000	     -0.00000000	      0.00000000	      0.00000000	      0.00000000	      0.00000000	      0.25000000	      0.00000000	     -7.42826189	      4.10420209	      0.29694456	     29.27010154	      1.51664320	     10.45931434	      0.05390372	      0.00238359	      1.23130343	     -3.06454832	     -0.00160442	      0.03429223	      8.45587705	     76.75093196	     -1.66610022	    -14.19165621	     -1.91766030	     60.57675774	     -9.66044392	   -263.91390137	     35.08678214	   2160.12680588	      5.95894072	     40.23296063	      0.00000000	      0.00000000	    -19.99999998	      0.00000000	     10.00000028	     -0.00000000	      4.99999985	      0.00000000	   -119.99999986	     -0.00000000	     11.49999977	      0.00000000	     -0.03000064	     -0.00000000	     -0.00000000	     -0.00000000	     -5.09467309	     -3.21260252	     -0.62509936	    -40.38769366	      0.00019729	     -7.07772347	     -0.01345693	      0.04530095	     -0.01345693	      0.07998090	     -0.01345693	      0.06175580	     -0.01345693	      0.09772914	     -0.01345693	      0.16746170	     -0.01345693	      0.46054623	     -0.01345693	      0.07660356	     -0.01345693	      0.10387761	     -0.01345693	      0.06830634	     -0.01345693	      0.31295898	     -0.01345693	      0.08076776	     -0.01345693	      0.08913136	     -0.01345693	      0.10157101	     -0.01345693	      0.10181244	     -0.01345693	      0.09610020	     -0.01345693	      0.04499630	     -0.01345693	      0.02420385	     -0.01345693	      0.02121670	     -0.01345693	      0.10066098	     -0.01345693	      0.07357681	     -0.01345693	      0.11054553	     -0.01345693	      0.08298104	     -0.01345693	      0.09801780	     -0.01345693	      0.03684998	     -0.01345693	      0.03481005	     -0.01345693	      0.04508335	     -0.01345693	      0.07740609	     -0.01345693	      0.05380523	     -0.01345693	      0.05567647	     -0.01345693	      0.07571697	     -0.01345693	      0.09358701	     -0.01345693	      0.10049262	     -0.01345693	      0.04646954	     -0.01345693	      0.07924345	     -0.01345693	      0.06066849	     -0.01345693	      0.02207317	     -0.01345693	      0.12238178	     -0.01345693	      0.45556126	     -0.01345693	      0.05828642	     -0.01345693	      0.13391495	     -0.01345693	      0.07307389	     -0.01345693	      0.24301553	     -0.01345693	      0.06638073	     -0.01345693	      0.06554424	     -0.01345693	      0.05770037	     -0.01345693	      0.11895704	     -0.01345693	      0.11276383	     -0.01345693	      0.04385542	     -0.01345693	      0.02477863	     -0.01345693	      0.02332623	     -0.01345693	      0.18252185	     -0.01345693	      0.13945923	     -0.01345693	      0.06773748	     -0.01345693	      0.04190256	     -0.01345693	      0.08593352	     -0.01345693	      0.03561972	     -0.01345693	      0.03422009	     -0.01345693	      0.04261424	     -0.01345693	      0.07211219	     -0.01345693	      0.05030458	     -0.01345693	      0.05155921	     -0.01345693	      0.07464108	     -0.01345693	      0.08888348	     -0.01345693	      0.09641126	     -0.01345693	      0.12366594	     -0.01345693	      0.12289299	     -0.01345693	      0.09500833	     -0.01345693	      0.09320999	     -0.01345693	      0.12807758	     -0.01345693	      0.12702095
      0.30234314	     20.00000000	     -0.00000000	      0.00000000	      0.00000000	      0.00000000	      0.00000000	      0.25000000	      0.00000000	     -7.42738944	      4.04986424	      0.30322386	     29.41609740	      1.51888918	     10.53150671	      0.05390423	      0.00240708	      1.23064733	     -3.06737774	     -0.00159707	      0.03440217	      8.47233271	     77.04430748	     -1.66914072	    -14.22504047	     -1.90466071	     60.91664421	     -9.71682628	   -263.03264231	     35.55019733	   2170.97664509	      5.96732154	     38.09735054	      0.00000000	      0.00000000	    -19.99999998	      0.00000000	     10.00000028	     -0.00000000	      4.99999985	      0.00000000	   -119.99999986	     -0.00000000	     11.49999977	      0.00000000	     -0.03000064	     -0.00000000	     -0.00000000	     -0.00000000	     -5.09535304	     -3.14233950	     -0.63376216	    -40.57470577	     -0.00132749	     -7.17273769	     -0.01348448	      0.04529725	     -0.01348448	      0.07998516	     -0.01348448	      0.06176564	     -0.01348448	      0.09771573	     -0.01348448	      0.16743801	     -0.01348448	      0.46052797	     -0.01348448	      0.07661422	     -0.01348448	      0.10387767	     -0.01348448	      0.06830150	     -0.01348448	      0.31293984	     -0.01348448	      0.08078187	     -0.01348448	      0.08914977	     -0.01348448	      0.10159878	     -0.01348448	      0.10180092	     -0.01348448	      0.09608917	     -0.01348448	      0.04500876	     -0.01348448	      0.02421128	     -0.01348448	      0.02122384	     -0.01348448	      0.10069500	     -0.01348448	      0.07362072	     -0.01348448	      0.11075128	     -0.01348448	      0.08317802	     -0.01348448	      0.09819130	     -0.01348448	      0.03689461	     -0.01348448	      0.03484898	     -0.01348448	      0.04515228	     -0.01348448	      0.07735209	     -0.01348448	      0.05381924	     -0.01348448	      0.05571301	     -0.01348448	      0.07567344	     -0.01348448	      0.09353081	     -0.01348448	      0.10043145	     -0.01348448	      0.04646954	     -0.01348448	      0.07924345	     -0.01348448	      0.06066849	     -0.01348448	      0.02207317	     -0.01348448	      0.12238178	     -0.01348448	      0.45556126	     -0.01348448	      0.05828642	     -0.01348448	      0.13391495	     -0.01348448	      0.07307389	     -0.01348448	      0.24301553	     -0.01348448	      0.06638073	     -0.01348448	      0.06554424	     -0.01348448	      0.05770037	     -0.01348448	      0.11895704	     -0.01348448	      0.11276383	     -0.01348448	      0.04385542	     -0.01348448	      0.02477863	     -0.01348448	      0.02332623	     -0.01348448	      0.18252185	     -0.01348448	      0.13945923	     -0.01348448	      0.06773748	     -0.01348448	      0.04190257	     -0.01348448	      0.08593352	     -0.01348448	      0.03561972	     -0.01348448	      0.03422013	     -0.01348448	      0.04261429	     -0.01348448	      0.07211219	     -0.01348448	      0.05030458	     -0.01348448	      0.05155922	     -0.01348448	      0.07464108	     -0.01348448	      0.08888348	     -0.01348448	      0.09641126	     -0.01348448	      0.12367225	     -0.01348448	      0.12288762	     -0.01348448	      0.09502092	     -0.01348448	      0.09319616	     -0.01348448	      0.12808600	     -0.01348448	      0.12701082
      0.30255713	     20.00000000	     -0.00000000	      0.00000000	      0.00000000	      0.00000000	      0.00000000	      0.25000000	      0.00000000	     -7.42652851	      3.99665237	      0.30953399	     29.55772882	      1.52115041	     10.60162317	      0.05390475	      0.00242885	      1.22999063	     -3.07019305	     -0.00158969	      0.03450871	      8.48885066	     77.33161885	     -1.67218820	    -14.25630554	     -1.89158930	     61.24774140	     -9.77301537	   -262.10356910	     36.01592701	   2181.72267359	      5.97524529	     35.95559939	      0.00000000	      0.00000000	    -19.99999998	      0.00000000	     10.00000028	     -0.00000000	      4.99999985	      0.00000000	   -119.99999986	     -0.00000000	     11.49999977	      0.00000000	     -0.03000064	     -0.00000000	     -0.00000000	     -0.00000000	     -5.09601810	     -3.07373456	     -0.64246443	    -40.75582917	     -0.00287234	     -7.26492043	     -0.01351203	      0.04529350	     -0.01351203	      0.07998943	     -0.01351203	      0.06177553	     -0.01351203	      0.09770240	     -0.01351203	      0.16741435	     -0.01351203	      0.46050963	     -0.01351203	      0.07662492	     -0.01351203	      0.10387769	     -0.01351203	      0.06829663	     -0.01351203	      0.31292077	     -0.01351203	      0.08079604	     -0.01351203	      0.08916825	     -0.01351203	      0.10162667	     -0.01351203	      0.10178935	     -0.01351203	      0.09607807	     -0.01351203	      0.04502128	     -0.01351203	      0.02421875	     -0.01351203	      0.02123102	     -0.01351203	      0.10072883	     -0.01351203	      0.07366448	     -0.01351203	      0.11095639	     -0.01351203	      0.08337426	     -0.01351203	      0.09843827	     -0.01351203	      0.03693916	     -0.01351203	      0.03488776	     -0.01351203	      0.04522108	     -0.01351203	      0.07729809	     -0.01351203	      0.05383276	     -0.01351203	      0.05574917	     -0.01351203	      0.07562991	     -0.01351203	      0.09347460	     -0.01351203	      0.10037029	     -0.01351203	      0.04646954	     -0.01351203	      0.07924345	     -0.01351203	      0.06066849	     -0.01351203	      0.02207317	     -0.01351203	      0.12238178	     -0.01351203	      0.45556126	     -0.01351203	      0.05828642	     -0.01351203	      0.13391495	     -0.01351203	      0.07307389	     -0.01351203	      0.24301553	     -0.01351203	      0.06638073	     -0.01351203	      0.06554424	     -0.01351203	      0.05770037	     -0.01351203	      0.11895704	     -0.01351203	      0.11276383	     -0.01351203	      0.04385542	     -0.01351203	      0.02477863	     -0.01351203	      0.02332623	     -0.01351203	      0.18252185	     -0.01351203	      0.13945923	     -0.01351203	      0.06773748	     -0.01351203	      0.04190258	     -0.01351203	      0.08593352	     -0.01351203	      0.03561972	     -0.01351203	      0.03422018	     -0.01351203	      0.04261434	     -0.01351203	      0.07211219	     -0.01351203	      0.05030458	     -0.01351203	      0.05155922	     -0.01351203	      0.07464108	     -0.01351203	      0.08888348	     -0.01351203	      0.09641126	     -0.01351203	      0.12367857	     -0.01351203	      0.12288221	     -0.01351203	      0.09503359	     -0.01351203	      0.09318229	     -0.01351203	      0.12809450	     -0.01351203	      0.12700066
